<svg version="1.0" xmlns="http://www.w3.org/2000/svg"
 viewBox="0 0 1152.000000 411.000000"
 preserveAspectRatio="xMidYMid meet">
<metadata>
Created by potrace 1.16, written by Peter Selinger 2001-2019
</metadata>
<g transform="translate(0.000000,411.000000) scale(0.100000,-0.100000)"
fill="currentColor" stroke="none">
<path d="M1890 4016 c-8 -2 -60 -10 -115 -16 -690 -85 -1249 -469 -1554 -1070
-240 -472 -277 -1055 -101 -1555 167 -472 613 -914 1140 -1133 510 -212 1039
-199 1527 38 471 229 834 603 998 1030 49 125 92 309 120 510 24 178 14 427
-26 630 -67 338 -252 684 -521 974 -274 297 -673 507 -1083 571 -95 14 -353
28 -385 21z m267 -50 c299 -16 685 -164 948 -365 337 -258 620 -679 716 -1066
90 -360 72 -784 -48 -1150 -73 -223 -219 -458 -403 -646 -136 -140 -357 -301
-550 -402 -529 -277 -1128 -275 -1685 7 -336 170 -605 405 -807 704 -117 174
-192 361 -244 612 -26 126 -28 151 -28 370 -1 217 2 245 27 366 45 219 81 327
172 509 241 483 628 810 1153 975 182 57 478 103 607 94 22 -2 86 -6 142 -8z"/>
<path d="M1753 3829 c-430 -66 -775 -224 -1023 -469 -285 -280 -468 -624 -526
-985 -27 -168 -32 -229 -32 -365 0 -405 122 -749 371 -1045 78 -93 234 -250
317 -319 263 -221 602 -364 941 -397 115 -12 148 -11 263 4 369 47 801 222
1049 426 301 246 502 575 591 966 24 109 27 128 45 275 19 157 11 278 -29 479
-29 142 -56 225 -122 371 -55 121 -204 357 -307 485 -89 112 -143 166 -241
244 -210 166 -429 264 -715 323 -145 29 -417 33 -582 7z m386 -26 c0 -5 -49
-47 -107 -96 l-107 -87 -5 87 c-3 49 -4 91 -2 96 2 4 52 7 113 7 60 0 109 -3
108 -7z m-264 -76 c12 -127 15 -126 -105 -41 -58 41 -105 78 -105 82 0 7 118
28 172 31 l31 1 7 -73z m452 53 c61 -11 121 -24 134 -29 22 -8 20 -10 -36 -46
-119 -76 -431 -285 -462 -311 l-33 -27 -1 29 c0 16 -2 60 -4 97 -3 46 -1 73 8
80 63 60 267 227 277 227 4 0 56 -9 117 -20z m-590 -119 l140 -100 6 -53 c4
-29 7 -72 7 -96 l0 -42 -67 41 c-146 90 -433 282 -433 289 0 6 160 53 201 59
4 1 69 -44 146 -98z m875 40 c152 -59 364 -178 418 -235 23 -25 23 -27 11 -98
-7 -40 -22 -112 -33 -160 -18 -80 -23 -91 -61 -124 -23 -19 -62 -49 -86 -65
-42 -28 -50 -29 -152 -29 -153 0 -152 -1 -178 112 -12 51 -26 100 -31 108 -10
17 -13 16 -138 -41 -83 -38 -82 -39 -107 47 -8 29 -23 62 -34 75 -18 23 -19
23 -47 4 -16 -10 -50 -36 -76 -57 -26 -22 -55 -38 -65 -36 -9 2 -37 27 -61 57
l-43 53 33 29 c63 54 183 137 378 262 107 69 195 126 195 126 0 1 35 -12 77
-28z m-1105 -134 c93 -62 216 -141 275 -177 l108 -64 -33 -34 c-40 -41 -130
-112 -144 -112 -5 0 -34 18 -63 40 -29 22 -59 40 -66 40 -7 0 -39 -35 -71 -77
-51 -68 -62 -78 -88 -77 -17 1 -76 5 -132 9 -119 8 -107 20 -118 -125 -3 -50
-11 -91 -19 -98 -17 -18 -132 -7 -177 17 -40 20 -102 121 -130 211 -13 40 -23
106 -26 171 l-6 106 84 60 c46 33 113 77 148 98 75 45 248 124 273 124 10 1
93 -50 185 -112z m1666 -295 c-17 -15 -55 -47 -84 -72 -47 -40 -52 -42 -46
-20 4 14 14 66 22 115 23 130 18 127 83 62 l57 -58 -32 -27z m-2392 26 c2 -76
15 -155 35 -213 3 -11 -24 24 -61 78 -36 55 -65 101 -63 103 26 32 75 82 81
83 4 1 8 -23 8 -51z m2525 -125 c-1 -1 -46 -3 -100 -5 l-98 -3 58 53 59 52 42
-47 c22 -27 40 -49 39 -50z m-2588 -24 c30 -44 52 -82 50 -84 -2 -2 -56 -5
-121 -7 -93 -2 -116 0 -112 10 7 18 118 162 125 162 3 0 29 -37 58 -81z m1445
-44 c350 -79 673 -349 801 -668 51 -127 67 -212 71 -362 3 -155 -7 -223 -56
-366 -112 -330 -363 -564 -720 -673 -302 -92 -627 -46 -890 126 -168 110 -299
259 -379 432 -123 263 -143 556 -57 806 56 159 200 370 331 483 75 65 209 148
293 182 172 69 409 85 606 40z m1215 -32 c61 -91 150 -247 188 -329 l35 -75
-118 -157 c-126 -169 -251 -325 -262 -330 -11 -4 -109 87 -116 109 -5 15 4 32
34 64 23 25 41 48 41 53 0 13 -38 45 -102 87 -32 21 -58 43 -58 50 0 7 11 37
24 65 14 29 22 58 20 64 -5 11 -160 89 -215 108 -31 11 -39 32 -39 104 0 51 0
51 57 90 32 21 85 62 118 89 57 48 63 50 135 56 41 3 107 6 147 7 l72 2 39
-57z m-2551 -75 c16 -18 52 -58 82 -90 l54 -58 8 -102 c10 -122 9 -123 -106
-184 -41 -21 -77 -44 -79 -51 -3 -6 13 -39 35 -73 21 -33 39 -65 39 -70 0 -5
-22 -35 -50 -65 -27 -30 -50 -63 -50 -74 0 -11 -72 55 -199 183 -110 111 -209
213 -221 228 l-21 27 31 78 c38 94 127 252 146 260 8 3 76 8 151 13 76 4 141
8 145 8 5 1 20 -12 35 -30z m2824 -470 l21 -67 -61 -88 c-33 -48 -84 -119
-114 -158 l-54 -70 -78 3 c-44 1 -83 6 -88 11 -5 5 39 71 110 163 66 84 144
186 173 226 60 83 59 83 91 -20z m-3143 -141 c51 -54 111 -126 133 -160 l40
-62 -43 -7 c-110 -17 -102 -21 -248 128 l-132 136 5 41 c4 23 13 66 22 95 l16
54 57 -64 c31 -34 99 -107 150 -161z m3187 -49 c4 -29 9 -69 11 -88 2 -19 6
-55 10 -79 l6 -44 -63 6 c-34 4 -86 7 -115 7 l-54 0 51 68 c28 37 69 95 92
129 23 33 45 59 48 57 4 -2 10 -27 14 -56z m-3316 -99 c76 -80 89 -97 69 -96
-12 1 -72 -2 -132 -7 l-109 -8 6 34 c3 18 9 60 13 93 5 33 9 63 10 68 1 4 2
19 3 34 l1 28 23 -25 c13 -14 65 -68 116 -121z m2898 -152 c44 -59 115 -175
243 -398 l110 -192 -51 -128 c-28 -71 -57 -136 -64 -145 -9 -13 -34 -17 -126
-20 -63 -2 -137 -6 -165 -9 -47 -4 -56 -2 -111 36 -33 22 -70 50 -82 63 -19
20 -60 144 -61 182 0 6 39 24 88 40 121 40 120 38 76 115 -21 35 -43 71 -50
79 -6 8 -15 25 -18 37 -6 19 2 27 68 63 55 30 76 47 76 61 0 11 -22 50 -50 86
-27 36 -50 74 -50 83 0 18 95 89 120 89 8 0 29 -19 47 -42z m-2647 26 c0 -1
-6 -8 -12 -15 -7 -7 -62 -67 -122 -133 -151 -166 -247 -265 -256 -265 -4 0
-11 35 -15 78 l-7 77 133 127 c102 97 141 128 164 130 33 3 115 4 115 1z m152
-110 l22 -41 -47 -58 c-30 -36 -47 -65 -45 -78 2 -13 33 -41 85 -76 45 -30 82
-61 83 -69 0 -8 -19 -43 -41 -79 -31 -49 -39 -70 -32 -81 5 -9 44 -28 86 -42
111 -38 111 -36 104 -147 -6 -104 -9 -111 -90 -196 l-55 -59 -144 6 c-78 4
-160 7 -181 7 -34 0 -40 4 -72 54 -84 131 -146 274 -190 433 l-18 63 114 122
c62 68 136 148 163 178 27 30 77 84 110 119 l60 63 33 -38 c18 -22 43 -58 55
-81z m2678 69 c29 -33 211 -269 223 -289 8 -13 -33 -223 -43 -223 -4 0 -14 15
-23 33 -41 80 -155 276 -244 417 -29 47 -53 90 -53 94 0 5 26 6 58 3 47 -5 62
-11 82 -35z m-3050 24 c0 -3 -28 -31 -62 -63 -34 -32 -77 -73 -95 -90 -18 -18
-35 -33 -38 -33 -3 0 -5 40 -5 89 l0 90 53 4 c90 6 147 7 147 3z m3250 -3 l63
-6 -7 -91 c-8 -101 -15 -158 -19 -162 -1 -2 -49 58 -105 132 l-102 134 53 0
c30 0 82 -3 117 -7z m-613 -864 c37 -28 75 -56 84 -63 10 -8 16 -32 18 -67 1
-30 8 -112 16 -183 11 -101 12 -133 3 -144 -26 -31 -177 -141 -260 -190 -83
-49 -304 -152 -325 -152 -6 0 -37 16 -69 36 -77 46 -395 205 -472 235 -57 22
-60 25 -66 63 -5 31 -3 42 9 49 9 5 48 36 85 68 38 32 78 59 88 59 11 0 52
-14 92 -31 40 -17 78 -28 85 -25 8 3 33 39 56 81 46 85 74 110 116 101 25 -5
207 -10 241 -7 8 1 12 26 12 91 0 85 1 90 23 95 67 16 155 33 174 34 12 0 52
-21 90 -50z m-1821 -132 c0 -61 5 -112 11 -118 7 -7 44 -1 122 22 64 18 116
28 120 23 5 -5 21 -46 36 -92 15 -46 33 -86 40 -88 8 -3 61 11 120 31 58 20
127 38 152 38 l47 2 28 -55 c16 -30 31 -78 34 -106 l6 -51 -113 -51 c-153 -69
-237 -103 -409 -168 l-144 -55 -81 42 c-84 43 -208 123 -223 143 -5 6 -14 54
-20 106 -7 52 -24 150 -39 218 l-27 123 67 66 c72 73 88 79 217 78 l55 0 1
-108z m2254 68 c0 -3 -21 -37 -46 -75 -41 -60 -49 -68 -63 -58 -9 7 -45 38
-79 68 l-64 55 109 6 c59 3 116 6 126 7 9 1 17 0 17 -3z m-241 -72 c25 -21 55
-46 66 -55 11 -9 29 -24 40 -31 19 -14 18 -16 -22 -68 -23 -30 -58 -70 -77
-88 l-36 -35 -1 35 c-1 18 -1 36 -1 39 0 3 -5 58 -12 123 -7 64 -10 117 -7
117 2 0 25 -17 50 -37z m-2439 -60 c2 -2 -28 -36 -68 -75 -39 -40 -73 -70 -75
-68 -2 3 -31 38 -65 78 -34 40 -62 75 -62 78 0 6 262 -6 270 -13z m78 -120
c12 -60 24 -121 26 -138 3 -16 8 -51 11 -77 4 -27 4 -48 1 -48 -10 0 -81 64
-159 143 l-69 70 78 78 c43 44 81 79 84 79 3 0 16 -48 28 -107z m1400 -370
c140 -69 250 -129 245 -133 -8 -8 -138 -51 -207 -69 -32 -8 -45 -7 -80 11 -38
19 -180 111 -217 140 -11 9 -19 41 -25 101 -10 85 -9 87 11 82 11 -3 134 -63
273 -132z m-328 90 c1 -16 3 -50 6 -78 l5 -50 -68 -42 c-122 -74 -259 -143
-286 -143 -26 0 -223 61 -255 79 -16 9 -15 10 3 17 108 39 445 179 500 207 86
43 95 44 95 10z m20 -207 c0 -12 3 -51 7 -86 l6 -63 -109 7 c-107 6 -176 15
-183 21 -1 2 37 24 85 49 49 25 107 56 129 70 50 32 65 32 65 2z m208 -118
c-45 -9 -158 -21 -158 -17 -1 2 -3 39 -7 82 l-5 77 101 -67 102 -68 -33 -7z"/>
<path d="M1755 2953 c-279 -57 -542 -274 -667 -550 -48 -106 -68 -205 -69
-339 -2 -427 275 -794 680 -901 83 -23 116 -26 251 -26 133 1 168 4 251 26
278 73 485 239 606 487 67 138 87 230 86 395 0 121 -4 152 -27 228 -91 303
-320 545 -610 643 -158 54 -349 68 -501 37z m220 -92 c121 -35 253 -130 290
-207 21 -44 19 -107 -5 -154 -11 -22 -48 -72 -83 -111 -143 -164 -178 -221
-197 -320 -13 -66 2 -153 36 -221 53 -104 181 -198 313 -228 106 -25 250 5
341 71 23 17 44 29 46 26 8 -8 -73 -123 -110 -155 -123 -108 -324 -131 -484
-55 -80 38 -165 125 -203 210 -17 37 -42 91 -56 120 -67 143 -248 236 -409
211 -141 -22 -235 -104 -290 -253 -13 -36 -24 95 -14 171 14 107 59 191 118
223 36 19 123 12 232 -19 161 -46 270 -42 361 15 54 35 125 119 161 193 31 62
33 73 33 167 -1 129 -25 196 -99 269 -28 28 -60 57 -71 64 l-20 12 20 -4 c11
-2 52 -13 90 -25z"/>
<path d="M10040 3202 l-66 -3 8 -92 c5 -51 7 -206 6 -345 l-3 -252 69 0 69 0
-8 169 -7 169 27 18 c41 27 119 25 147 -4 22 -22 23 -28 21 -187 l-1 -165 64
0 64 0 0 186 c0 153 -3 192 -17 221 -39 84 -205 98 -286 25 -19 -17 -19 -14
-15 121 3 76 2 139 -1 140 -3 1 -35 1 -71 -1z"/>
<path d="M6978 3173 c-62 -71 2 -164 87 -129 40 17 59 63 44 104 -13 35 -26
42 -75 42 -27 0 -46 -6 -56 -17z"/>
<path d="M4100 3151 c-102 -22 -160 -87 -160 -177 0 -87 47 -141 167 -196 37
-16 83 -41 101 -55 28 -21 33 -30 30 -61 -4 -53 -31 -64 -143 -58 -49 3 -102
8 -117 11 -24 6 -27 4 -37 -31 -22 -81 -19 -83 119 -91 166 -10 254 22 298
107 19 36 22 55 18 98 -8 91 -60 143 -206 206 -78 34 -100 52 -100 80 0 27 9
40 37 55 27 14 126 14 176 0 22 -6 40 -9 42 -7 2 2 7 26 10 54 6 43 4 52 -10
58 -28 10 -187 16 -225 7z"/>
<path d="M7929 3149 c0 -2 -1 -147 -2 -322 l-2 -317 68 0 67 0 0 126 0 126 55
-4 c74 -6 92 -26 139 -148 l39 -100 73 0 74 0 -24 63 c-41 108 -94 204 -126
227 l-31 22 44 28 c102 65 105 213 4 271 -39 22 -54 24 -209 27 -93 2 -168 2
-169 1z m280 -114 c33 -17 41 -33 41 -84 0 -62 -60 -100 -157 -101 l-33 0 0
54 c0 29 -3 74 -6 100 l-7 46 67 0 c39 0 79 -6 95 -15z"/>
<path d="M6770 3030 c-11 -11 -22 -30 -25 -43 -6 -23 -8 -24 -43 -11 -83 29
-217 10 -271 -39 -68 -63 -66 -170 4 -225 22 -18 23 -21 9 -33 -43 -36 -53
-111 -18 -140 20 -16 18 -24 -11 -37 -36 -17 -58 -67 -52 -119 9 -84 81 -126
217 -127 180 0 290 78 290 207 0 91 -59 127 -223 135 -116 5 -157 21 -144 55
5 14 21 17 90 17 98 0 158 24 195 80 23 34 26 83 11 165 -3 16 4 21 38 28 38
9 42 13 48 48 4 21 4 43 0 49 -11 18 -93 12 -115 -10z m-105 -145 c32 -31 32
-75 1 -112 -51 -59 -156 -22 -156 54 0 76 101 113 155 58z m39 -405 c35 -13
50 -48 37 -83 -27 -71 -217 -91 -251 -27 -13 24 -13 76 0 101 9 17 22 19 100
19 49 0 100 -4 114 -10z"/>
<path d="M5670 2989 c-182 -35 -251 -300 -113 -431 36 -35 88 -56 156 -64 62
-7 188 11 199 29 13 20 9 87 -4 87 -7 0 -42 -5 -78 -10 -88 -12 -137 0 -177
44 -18 20 -33 45 -33 56 0 18 8 20 153 22 l152 3 3 50 c10 152 -101 245 -258
214z m119 -115 c12 -15 21 -37 21 -50 0 -21 -5 -24 -42 -24 -24 0 -67 -3 -95
-6 -52 -7 -53 -6 -53 19 0 14 12 39 26 56 22 27 32 31 74 31 41 0 52 -4 69
-26z"/>
<path d="M5151 2979 c-13 -5 -36 -18 -52 -30 l-29 -20 0 27 c0 26 0 26 -60 22
-33 -2 -62 -7 -65 -10 -3 -3 -1 -48 6 -99 7 -58 9 -144 5 -226 l-7 -133 72 0
72 0 -8 168 c-8 186 -9 180 58 201 48 16 93 6 114 -26 14 -21 16 -51 15 -184
l-3 -159 66 0 65 0 0 180 c0 216 -8 248 -74 280 -45 21 -132 26 -175 9z"/>
<path d="M6210 2984 c-8 -4 -30 -20 -47 -37 l-33 -31 0 33 0 33 -60 -4 c-33
-2 -62 -7 -65 -10 -3 -3 -1 -35 5 -71 7 -38 10 -134 8 -226 l-3 -161 68 0 67
0 0 159 0 160 27 21 c22 17 38 21 82 18 l54 -3 15 53 c8 29 12 55 8 59 -8 9
-108 14 -126 7z"/>
<path d="M7257 2980 c-20 -4 -39 -9 -41 -11 -2 -2 -6 -25 -10 -51 l-7 -46 38
9 c21 5 70 9 108 9 86 0 115 -16 115 -64 l0 -33 -69 -5 c-79 -6 -154 -38 -184
-79 -11 -15 -21 -47 -24 -71 -6 -56 15 -101 60 -125 44 -24 134 -22 186 4 39
20 41 20 46 2 7 -20 26 -23 88 -12 36 5 38 8 32 32 -4 14 -7 93 -6 175 1 183
-12 225 -81 256 -45 21 -171 26 -251 10z m203 -315 c0 -64 -14 -76 -88 -78
-33 0 -49 5 -58 18 -41 55 16 111 114 114 l32 1 0 -55z"/>
<path d="M8564 2981 c-46 -11 -52 -17 -56 -60 l-3 -39 105 5 c93 5 108 3 127
-13 12 -11 24 -32 25 -49 l3 -30 -70 -6 c-38 -4 -86 -13 -105 -22 -105 -46
-142 -163 -72 -230 53 -51 142 -57 223 -16 36 18 37 18 42 -3 5 -19 10 -20 59
-14 29 4 53 8 53 9 1 1 -2 88 -5 192 -6 217 -11 233 -83 266 -44 20 -178 25
-243 10z m201 -295 c12 -63 4 -79 -45 -93 -82 -24 -136 15 -107 77 13 27 62
49 114 49 29 1 33 -3 38 -33z"/>
<path d="M9174 2971 c-23 -10 -45 -25 -50 -32 -6 -10 -10 -7 -14 11 -7 29 -31
35 -95 25 l-42 -6 10 -47 c5 -26 10 -129 9 -229 l-1 -183 65 0 64 0 0 170 0
170 26 17 c36 23 118 23 141 0 16 -16 18 -38 18 -187 l0 -170 68 0 69 0 -4
194 c-3 178 -5 197 -24 223 -46 62 -156 82 -240 44z"/>
<path d="M9698 2981 c-132 -42 -207 -188 -166 -322 15 -51 70 -114 120 -140
52 -26 160 -35 213 -17 38 12 40 15 43 61 2 26 1 47 -1 47 -2 0 -27 -4 -54 -9
-127 -24 -218 59 -198 181 11 62 51 100 112 105 29 3 65 1 81 -5 l30 -10 10
51 c6 29 8 54 5 57 -9 9 -167 9 -195 1z"/>
<path d="M4430 2970 c0 -6 26 -70 59 -143 110 -249 127 -316 96 -376 -14 -28
-68 -61 -99 -61 -13 0 -16 -11 -16 -50 0 -48 1 -50 28 -50 45 0 100 19 132 47
36 30 59 73 90 168 12 39 53 149 90 245 38 96 72 187 75 203 l7 27 -66 0 c-45
0 -68 -4 -70 -12 -2 -7 -11 -44 -20 -83 -8 -38 -26 -109 -39 -157 l-23 -87
-37 132 c-21 73 -42 149 -48 170 l-10 37 -74 0 c-44 0 -75 -4 -75 -10z"/>
<path d="M6971 2973 c-22 -4 -23 -8 -17 -50 3 -25 6 -128 6 -229 l0 -184 65 0
65 0 0 235 0 235 -47 -1 c-27 -1 -59 -4 -72 -6z"/>
<path d="M8329 1895 c-3 -2 -1 -50 4 -107 4 -57 7 -241 5 -411 l-3 -307 80 0
80 0 0 415 0 415 -81 0 c-44 0 -83 -2 -85 -5z"/>
<path d="M4150 1763 c-13 -37 -61 -166 -107 -287 -108 -281 -143 -377 -143
-393 0 -10 22 -13 89 -13 l88 0 7 43 c4 23 16 72 27 110 l20 67 133 0 133 0
21 -77 c11 -43 23 -93 27 -110 l7 -33 95 0 95 0 -7 33 c-4 17 -37 115 -72 217
-36 102 -89 257 -118 345 l-53 160 -110 3 -110 3 -22 -68z m165 -205 c25 -81
45 -150 45 -153 0 -3 -45 -5 -101 -5 -77 0 -100 3 -96 13 2 6 26 79 53 161 26
82 49 145 51 140 1 -5 23 -75 48 -156z"/>
<path d="M5156 1699 c-14 -11 -30 -35 -34 -52 -6 -20 -14 -31 -23 -28 -101 29
-120 32 -174 27 -89 -9 -131 -23 -172 -59 -45 -40 -63 -82 -63 -149 0 -59 33
-121 70 -133 25 -8 25 -17 2 -32 -51 -32 -64 -130 -22 -168 26 -24 25 -28 -8
-43 -34 -15 -72 -78 -72 -121 0 -74 54 -140 133 -162 65 -19 222 -16 287 5
120 38 191 120 192 220 1 121 -52 155 -256 168 -147 9 -186 21 -186 58 0 29
15 33 119 34 124 1 177 23 221 92 24 38 30 59 30 101 0 30 -7 67 -15 83 -18
35 -10 42 55 50 l45 5 7 55 c8 64 3 70 -63 70 -32 0 -55 -6 -73 -21z m-146
-164 c42 -22 58 -80 36 -127 -48 -100 -205 -65 -206 45 0 80 90 123 170 82z
m78 -504 c59 -32 41 -119 -31 -155 -47 -22 -149 -26 -196 -6 -59 24 -79 104
-39 155 l21 27 111 -4 c61 -2 121 -10 134 -17z"/>
<path d="M9747 1700 c-14 -11 -31 -36 -37 -54 l-11 -35 -37 16 c-45 20 -179
22 -240 4 -145 -41 -196 -215 -92 -311 37 -34 38 -37 20 -48 -52 -32 -62 -117
-21 -172 l19 -26 -27 -12 c-79 -37 -96 -166 -29 -231 48 -46 116 -65 233 -65
198 2 323 86 333 227 6 75 -13 115 -70 147 -34 19 -64 24 -181 32 -147 9 -187
21 -187 56 0 32 19 39 90 34 94 -6 163 12 213 57 66 59 85 139 52 218 -8 20
-13 38 -10 41 2 3 27 7 55 10 54 5 50 -1 64 99 4 26 -11 33 -68 33 -28 0 -52
-7 -69 -20z m-154 -162 c35 -18 46 -40 47 -90 0 -40 -4 -50 -31 -72 -35 -30
-84 -34 -129 -11 -91 47 -53 185 50 185 23 0 51 -5 63 -12z m52 -498 c22 -5
45 -17 52 -26 17 -24 16 -75 -2 -100 -51 -74 -256 -77 -295 -5 -20 39 -7 112
24 133 16 11 173 9 221 -2z"/>
<path d="M5594 1631 c-22 -10 -50 -31 -62 -46 l-22 -28 0 29 c0 50 -9 55 -86
47 -60 -7 -69 -11 -68 -28 1 -11 7 -67 13 -125 8 -69 10 -157 5 -257 l-7 -153
83 0 83 0 -8 174 c-6 158 -5 178 11 205 24 41 62 55 132 48 l58 -5 17 66 c10
36 15 67 13 69 -7 7 -78 23 -101 23 -11 0 -38 -9 -61 -19z"/>
<path d="M6007 1636 c-88 -32 -163 -110 -187 -196 -15 -53 -12 -171 6 -222 19
-57 77 -118 141 -148 67 -32 178 -33 246 -2 76 34 123 77 154 140 24 50 28 69
28 147 0 79 -4 97 -29 149 -30 60 -84 109 -149 133 -44 16 -164 15 -210 -1z
m164 -123 c45 -38 69 -96 69 -168 0 -113 -54 -185 -138 -185 -40 0 -50 5 -83
40 -28 29 -40 53 -49 95 -35 169 93 308 201 218z"/>
<path d="M6680 1641 c-73 -22 -132 -75 -172 -151 -34 -67 -38 -198 -8 -268 30
-70 102 -136 171 -156 95 -28 288 -15 317 22 6 9 12 37 12 63 l0 48 -31 -9
c-18 -5 -65 -12 -105 -16 -116 -11 -183 23 -219 109 l-15 37 128 0 c71 0 157
3 191 6 l61 7 0 66 c0 36 -5 83 -11 104 -14 52 -84 122 -134 136 -45 12 -147
13 -185 2z m141 -111 c24 -13 49 -61 49 -95 l0 -25 -119 0 -120 0 9 29 c12 43
28 68 52 85 25 18 100 21 129 6z"/>
<path d="M7327 1640 c-94 -24 -166 -82 -208 -168 -19 -38 -24 -64 -24 -132 0
-73 4 -92 27 -135 33 -63 70 -98 133 -126 61 -27 174 -36 243 -20 53 13 62 28
62 103 0 28 -1 29 -37 21 -21 -4 -66 -8 -99 -8 -115 1 -180 77 -172 199 8 130
99 182 245 140 22 -6 20 -10 39 85 4 21 1 30 -13 36 -30 11 -156 15 -196 5z"/>
<path d="M7834 1639 c-49 -14 -126 -70 -156 -114 -15 -22 -35 -71 -45 -109
-42 -174 50 -332 213 -366 142 -30 288 44 345 174 32 70 33 201 3 266 -46 100
-144 160 -259 159 -38 0 -84 -5 -101 -10z m166 -134 c77 -74 79 -232 4 -311
-26 -28 -39 -34 -73 -34 -58 0 -92 20 -121 72 -20 35 -24 57 -25 118 0 84 24
142 73 173 39 26 106 17 142 -18z"/>
<path d="M8805 1638 c-37 -13 -102 -58 -132 -90 -70 -75 -91 -241 -44 -346 45
-100 138 -156 261 -156 90 0 147 22 213 83 62 57 89 125 90 221 1 100 -15 148
-65 205 -60 68 -123 95 -218 94 -41 0 -88 -5 -105 -11z m155 -120 c51 -35 75
-90 75 -173 -1 -114 -51 -185 -130 -185 -90 0 -139 68 -140 190 0 54 5 86 19
114 36 73 113 96 176 54z"/>
<path d="M9924 1593 c8 -21 43 -103 78 -183 117 -261 139 -353 99 -413 -24
-37 -51 -55 -98 -65 -42 -9 -50 -27 -38 -88 5 -32 9 -34 44 -34 53 0 120 25
154 58 37 35 69 99 97 192 12 41 51 149 87 240 96 243 113 290 113 311 0 17
-8 19 -75 19 -52 0 -77 -4 -79 -12 -2 -7 -13 -53 -25 -103 -35 -149 -80 -311
-80 -290 0 11 -24 107 -53 212 l-53 193 -92 0 -92 0 13 -37z"/>
</g>
</svg>